<?xml version="1.0" encoding="UTF-8" standalone="no"?>
<svg
   width="105.56392"
   zoomAndPan="magnify"
   viewBox="0 0 79.172938 63.031806"
   height="84.042404"
   preserveAspectRatio="xMidYMid"
   version="1.0"
   id="svg110"
   sodipodi:docname="favicon.svg"
   inkscape:version="1.2.2 (b0a8486, 2022-12-01)"
   xmlns:inkscape="http://www.inkscape.org/namespaces/inkscape"
   xmlns:sodipodi="http://sodipodi.sourceforge.net/DTD/sodipodi-0.dtd"
   xmlns="http://www.w3.org/2000/svg"
   xmlns:svg="http://www.w3.org/2000/svg">
  <sodipodi:namedview
     id="namedview112"
     pagecolor="#ffffff"
     bordercolor="#000000"
     borderopacity="0.25"
     inkscape:showpageshadow="2"
     inkscape:pageopacity="0.0"
     inkscape:pagecheckerboard="0"
     inkscape:deskcolor="#d1d1d1"
     showgrid="false"
     inkscape:zoom="0.472"
     inkscape:cx="-41.313559"
     inkscape:cy="73.09322"
     inkscape:window-width="1440"
     inkscape:window-height="847"
     inkscape:window-x="0"
     inkscape:window-y="25"
     inkscape:window-maximized="1"
     inkscape:current-layer="svg110" />
  <defs
     id="defs10">
    <g
       id="g2" />
    <clipPath
       id="7c93a555cf">
      <path
         d="m 266,132.99609 h 7 V 156 h -7 z m 0,0"
         clip-rule="nonzero"
         id="path4" />
    </clipPath>
    <clipPath
       id="981d9ed951">
      <path
         d="m 238.26562,135 h 63 v 60.99609 h -63 z m 0,0"
         clip-rule="nonzero"
         id="path7" />
    </clipPath>
  </defs>
  <g
     fill="#ffffff"
     fill-opacity="1"
     id="g22"
     transform="translate(-222.07757,-132.96429)">
    <g
       transform="translate(0.843754,194.01678)"
       id="g20">
      <g
         id="g18" />
    </g>
  </g>
  <g
     fill="#ffffff"
     fill-opacity="1"
     id="g60"
     transform="translate(-222.07757,-132.96429)">
    <g
       transform="translate(211.79296,194.01678)"
       id="g58">
      <g
         id="g56" />
    </g>
  </g>
  <g
     fill="#ffffff"
     fill-opacity="1"
     id="g66"
     transform="translate(-222.07757,-132.96429)">
    <g
       transform="translate(230.58749,194.01678)"
       id="g64">
      <g
         id="g62" />
    </g>
  </g>
  <g
     fill="#ffffff"
     fill-opacity="1"
     id="g72"
     transform="translate(-222.07757,-132.96429)">
    <g
       transform="translate(249.38202,194.01678)"
       id="g70">
      <g
         id="g68" />
    </g>
  </g>
  <g
     fill="#ffffff"
     fill-opacity="1"
     id="g78"
     transform="translate(-222.07757,-132.96429)">
    <g
       transform="translate(268.17655,194.01678)"
       id="g76">
      <g
         id="g74" />
    </g>
  </g>
  <g
     fill="#ffffff"
     fill-opacity="1"
     id="g84"
     transform="translate(-222.07757,-132.96429)">
    <g
       transform="translate(286.97107,194.01678)"
       id="g82">
      <g
         id="g80" />
    </g>
  </g>
  <g
     fill="#ffffff"
     fill-opacity="1"
     id="g98"
     transform="translate(-222.07757,-132.96429)">
    <g
       transform="translate(355.37108,194.01678)"
       id="g96">
      <g
         id="g94" />
    </g>
  </g>
  <g
     clip-path="url(#7c93a555cf)"
     id="g102"
     transform="translate(-222.07757,-132.96429)">
    <path
       fill="#289dd2"
       d="m 269.76562,155.90625 c -4.01312,-0.46571 -2.60806,-5.06946 -2.86328,-7.85281 0.13209,-4.43003 -0.27558,-8.91404 0.22491,-13.30723 3.62158,-4.79629 6.50757,1.51914 5.50166,5.10478 -0.13407,4.76303 0.27831,9.58063 -0.22491,14.30679 -0.42617,1.04027 -1.5112,1.76556 -2.63838,1.74847 z"
       fill-opacity="1"
       fill-rule="nonzero"
       id="path100" />
  </g>
  <g
     clip-path="url(#981d9ed951)"
     id="g106"
     transform="translate(-222.07757,-132.96429)">
    <path
       fill="#289dd2"
       d="m 269.76562,195.99609 c -15.65837,0.34745 -30.07011,-12.68083 -31.33708,-28.28357 -1.56199,-13.45248 6.71696,-27.77341 19.62114,-32.24419 7.71731,3.37567 -2.98084,7.28238 -5.76815,10.09455 -10.26857,9.0368 -11.09559,26.3594 -1.5857,36.25343 9.26296,10.80626 27.51604,11.24896 37.28561,0.8956 10.09348,-9.53418 9.96015,-27.15766 -0.15754,-36.60891 -2.29246,-3.73962 -13.28691,-5.36538 -7.64909,-10.52341 7.05766,0.61588 12.76615,6.91537 16.54664,12.61646 8.3122,13.05864 4.82294,31.79577 -7.51908,41.07354 -5.48441,4.33908 -12.44216,6.75204 -19.43675,6.7265 z"
       fill-opacity="1"
       fill-rule="nonzero"
       id="path104" />
  </g>
  <path
     stroke-linecap="round"
     fill="none"
     stroke-linejoin="miter"
     d="M 3.13728,60.004469 C 3.09168,41.003166 3.04618,22.001863 3.00056,3.00056"
     stroke="#289dd2"
     stroke-width="6.00112"
     stroke-opacity="1"
     stroke-miterlimit="4"
     id="path108" />
</svg>
